# xmcd CD database file
#
# Track frame offsets:
#	150
#	22627
#	42301
#	62807
#	88678
#	113247
#	145322
#	170073
#	183301
#	208678
#	222196
#	247338
#	258319
#
# Disc length: 3637 seconds
#
# Revision: 0
# Processed by: cddbd v1.5.1PL0 Copyright (c) Steve Scherf et al.
# Submitted via: CDex 1.51
#
DISCID=bf0e330d
DTITLE=Various Artist - Cuba and Salsa - Echale Salsita, Amor - CD2
DYEAR=2001
DGENRE=Salsa
TTITLE0=Enrique Bonne - Yo No Quiero Piedra En Mi Camino
TTITLE1=Miguel Matamoros - San De La Loma
TTITLE2=Yuli Mendoza - Flores Para Tu Altar
TTITLE3=Alvarez - Lo Que Me Paso En La
TTITLE4=Vaillant - Yo No Quiero Que Seas Celosa
TTITLE5=Fabre - Coge El Camaron
TTITLE6=Mendez-Miranda - Popurri De Boleros - Si Me Comprendieras, Seguire Sin Ti, Realidad Y Fantasia
TTITLE7=Guerra - A Mi Manera
TTITLE8=Munoz-Valladers-De Jesus - Popurri De Boleros - Irremediablemente Solo, Pecado De Amor
TTITLE9=Rodriguez - Bruca Manigua
TTITLE10=Cesar Portillo De La Luz - Son Al Son
TTITLE11=Enrique Jorrin - La Enganadora
TTITLE12=Isolina Carillo - Dos Gardenias
EXTD=YEAR: 2001
EXTT0=
EXTT1=
EXTT2=
EXTT3=
EXTT4=
EXTT5=
EXTT6=
EXTT7=
EXTT8=
EXTT9=
EXTT10=
EXTT11=
EXTT12=
PLAYORDER=
